<svg version="1.1" xmlns="http://www.w3.org/2000/svg" xmlns:xlink="http://www.w3.org/1999/xlink">
<symbol id="icon-cogs" viewBox="0 0 30 28">
<title>cogs</title>
<path class="path1" d="M14 14c0-2.203-1.797-4-4-4s-4 1.797-4 4 1.797 4 4 4 4-1.797 4-4zM26 22c0-1.094-0.906-2-2-2s-2 0.906-2 2c0 1.109 0.906 2 2 2 1.109 0 2-0.906 2-2zM26 6c0-1.094-0.906-2-2-2s-2 0.906-2 2c0 1.109 0.906 2 2 2 1.109 0 2-0.906 2-2zM20 12.578v2.891c0 0.203-0.156 0.438-0.359 0.469l-2.422 0.375c-0.125 0.406-0.297 0.797-0.5 1.188 0.438 0.625 0.906 1.203 1.406 1.797 0.063 0.094 0.109 0.187 0.109 0.313 0 0.109-0.031 0.219-0.109 0.297-0.313 0.422-2.063 2.328-2.516 2.328-0.125 0-0.234-0.047-0.328-0.109l-1.797-1.406c-0.391 0.203-0.781 0.359-1.203 0.484-0.078 0.797-0.156 1.656-0.359 2.422-0.063 0.219-0.25 0.375-0.469 0.375h-2.906c-0.219 0-0.438-0.172-0.469-0.391l-0.359-2.391c-0.406-0.125-0.797-0.297-1.172-0.484l-1.844 1.391c-0.078 0.078-0.203 0.109-0.313 0.109-0.125 0-0.234-0.047-0.328-0.125-0.406-0.375-2.25-2.047-2.25-2.5 0-0.109 0.047-0.203 0.109-0.297 0.453-0.594 0.922-1.172 1.375-1.781-0.219-0.422-0.406-0.844-0.547-1.281l-2.375-0.375c-0.219-0.031-0.375-0.234-0.375-0.453v-2.891c0-0.203 0.156-0.438 0.359-0.469l2.422-0.375c0.125-0.406 0.297-0.797 0.5-1.188-0.438-0.625-0.906-1.203-1.406-1.797-0.063-0.094-0.109-0.203-0.109-0.313s0.031-0.219 0.109-0.313c0.313-0.422 2.063-2.312 2.516-2.312 0.125 0 0.234 0.047 0.328 0.109l1.797 1.406c0.391-0.203 0.781-0.359 1.203-0.5 0.078-0.781 0.156-1.641 0.359-2.406 0.063-0.219 0.25-0.375 0.469-0.375h2.906c0.219 0 0.438 0.172 0.469 0.391l0.359 2.391c0.406 0.125 0.797 0.297 1.172 0.484l1.844-1.391c0.094-0.078 0.203-0.109 0.313-0.109 0.125 0 0.234 0.047 0.328 0.125 0.406 0.375 2.25 2.063 2.25 2.5 0 0.109-0.047 0.203-0.109 0.297-0.453 0.609-0.922 1.172-1.359 1.781 0.203 0.422 0.391 0.844 0.531 1.281l2.375 0.359c0.219 0.047 0.375 0.25 0.375 0.469zM30 20.906v2.188c0 0.234-2.016 0.453-2.328 0.484-0.125 0.297-0.281 0.562-0.469 0.812 0.141 0.313 0.797 1.875 0.797 2.156 0 0.047-0.016 0.078-0.063 0.109-0.187 0.109-1.859 1.109-1.937 1.109-0.203 0-1.375-1.563-1.531-1.797-0.156 0.016-0.313 0.031-0.469 0.031s-0.313-0.016-0.469-0.031c-0.156 0.234-1.328 1.797-1.531 1.797-0.078 0-1.75-1-1.937-1.109-0.047-0.031-0.063-0.078-0.063-0.109 0-0.266 0.656-1.844 0.797-2.156-0.187-0.25-0.344-0.516-0.469-0.812-0.313-0.031-2.328-0.25-2.328-0.484v-2.188c0-0.234 2.016-0.453 2.328-0.484 0.125-0.281 0.281-0.562 0.469-0.812-0.141-0.313-0.797-1.891-0.797-2.156 0-0.031 0.016-0.078 0.063-0.109 0.187-0.094 1.859-1.094 1.937-1.094 0.203 0 1.375 1.547 1.531 1.781 0.156-0.016 0.313-0.031 0.469-0.031s0.313 0.016 0.469 0.031c0.438-0.609 0.906-1.219 1.437-1.75l0.094-0.031c0.078 0 1.75 0.984 1.937 1.094 0.047 0.031 0.063 0.078 0.063 0.109 0 0.281-0.656 1.844-0.797 2.156 0.187 0.25 0.344 0.531 0.469 0.812 0.313 0.031 2.328 0.25 2.328 0.484zM30 4.906v2.187c0 0.234-2.016 0.453-2.328 0.484-0.125 0.297-0.281 0.562-0.469 0.812 0.141 0.313 0.797 1.875 0.797 2.156 0 0.047-0.016 0.078-0.063 0.109-0.187 0.109-1.859 1.109-1.937 1.109-0.203 0-1.375-1.563-1.531-1.797-0.156 0.016-0.313 0.031-0.469 0.031s-0.313-0.016-0.469-0.031c-0.156 0.234-1.328 1.797-1.531 1.797-0.078 0-1.75-1-1.937-1.109-0.047-0.031-0.063-0.078-0.063-0.109 0-0.266 0.656-1.844 0.797-2.156-0.187-0.25-0.344-0.516-0.469-0.812-0.313-0.031-2.328-0.25-2.328-0.484v-2.188c0-0.234 2.016-0.453 2.328-0.484 0.125-0.281 0.281-0.562 0.469-0.812-0.141-0.313-0.797-1.891-0.797-2.156 0-0.031 0.016-0.078 0.063-0.109 0.187-0.094 1.859-1.094 1.937-1.094 0.203 0 1.375 1.547 1.531 1.781 0.156-0.016 0.313-0.031 0.469-0.031s0.313 0.016 0.469 0.031c0.438-0.609 0.906-1.219 1.437-1.75l0.094-0.031c0.078 0 1.75 0.984 1.937 1.094 0.047 0.031 0.063 0.078 0.063 0.109 0 0.281-0.656 1.844-0.797 2.156 0.187 0.25 0.344 0.531 0.469 0.812 0.313 0.031 2.328 0.25 2.328 0.484z"></path>
</symbol>
<symbol id="icon-thumbs-o-up" viewBox="0 0 24 28">
<title>thumbs-o-up</title>
<path class="path1" d="M4 21c0-0.547-0.453-1-1-1s-1 0.453-1 1 0.453 1 1 1 1-0.453 1-1zM22 12c0-1.062-0.953-2-2-2h-5.5c0-1.828 1.5-3.156 1.5-5 0-1.828-0.359-3-2.5-3-1 1.016-0.484 3.406-2 5-0.438 0.453-0.812 0.938-1.203 1.422-0.703 0.906-2.562 3.578-3.797 3.578h-0.5v10h0.5c0.875 0 2.312 0.562 3.156 0.859 1.719 0.594 3.5 1.141 5.344 1.141h1.891c1.766 0 3-0.703 3-2.609 0-0.297-0.031-0.594-0.078-0.875 0.656-0.359 1.016-1.25 1.016-1.969 0-0.375-0.094-0.75-0.281-1.078 0.531-0.5 0.828-1.125 0.828-1.859 0-0.5-0.219-1.234-0.547-1.609 0.734-0.016 1.172-1.422 1.172-2zM24 11.984c0 0.906-0.266 1.797-0.766 2.547 0.094 0.344 0.141 0.719 0.141 1.078 0 0.781-0.203 1.563-0.594 2.25 0.031 0.219 0.047 0.453 0.047 0.672 0 1-0.328 2-0.938 2.781 0.031 2.953-1.984 4.688-4.875 4.688h-2.016c-2.219 0-4.281-0.656-6.344-1.375-0.453-0.156-1.719-0.625-2.156-0.625h-4.5c-1.109 0-2-0.891-2-2v-10c0-1.109 0.891-2 2-2h4.281c0.609-0.406 1.672-1.813 2.141-2.422 0.531-0.688 1.078-1.359 1.672-2 0.938-1 0.438-3.469 2-5 0.375-0.359 0.875-0.578 1.406-0.578 1.625 0 3.187 0.578 3.953 2.094 0.484 0.953 0.547 1.859 0.547 2.906 0 1.094-0.281 2.031-0.75 3h2.75c2.156 0 4 1.828 4 3.984z"></path>
</symbol>
<symbol id="icon-github-square" viewBox="0 0 24 28">
<title>github-square</title>
<path class="path1" d="M8.109 18.75v0c0.031-0.047 0.016-0.141-0.047-0.203-0.078-0.063-0.172-0.078-0.219-0.031-0.031 0.047-0.016 0.141 0.047 0.203 0.078 0.063 0.172 0.078 0.219 0.031zM7.672 18.109c-0.047-0.063-0.125-0.094-0.187-0.063-0.047 0.031-0.047 0.125 0 0.187 0.063 0.078 0.141 0.109 0.187 0.078v0c0.047-0.031 0.047-0.125 0-0.203zM7.031 17.484v0c0.016-0.031-0.016-0.094-0.078-0.125-0.047-0.016-0.109-0.016-0.125 0.031-0.031 0.047 0 0.094 0.063 0.125 0.063 0.016 0.125 0.016 0.141-0.031zM7.359 17.844v0c0.031-0.031 0.031-0.109-0.031-0.156-0.047-0.063-0.125-0.078-0.156-0.047-0.047 0.047-0.031 0.109 0.016 0.172 0.047 0.047 0.125 0.078 0.172 0.031zM8.703 19.016v0c0.016-0.063-0.047-0.141-0.141-0.172s-0.172 0-0.203 0.063c-0.016 0.063 0.047 0.141 0.141 0.172s0.172 0 0.203-0.063zM9.359 19.063v0c0-0.063-0.078-0.125-0.187-0.125-0.094 0-0.156 0.063-0.156 0.125s0.078 0.125 0.172 0.125 0.172-0.063 0.172-0.125zM9.969 18.953v0c-0.016-0.063-0.109-0.094-0.203-0.078s-0.156 0.078-0.141 0.141 0.094 0.109 0.187 0.094 0.156-0.094 0.156-0.156zM20 14c0-4.422-3.578-8-8-8s-8 3.578-8 8c0 3.531 2.297 6.531 5.469 7.594 0.406 0.078 0.547-0.172 0.547-0.391 0-0.187 0-0.812-0.016-1.484 0 0-2.219 0.484-2.688-0.953 0 0-0.359-0.922-0.891-1.156 0 0-0.719-0.5 0.063-0.5 0 0 0.781 0.063 1.219 0.828 0.703 1.234 1.875 0.875 2.328 0.672 0.078-0.516 0.281-0.875 0.516-1.078-1.781-0.203-3.656-0.891-3.656-3.953 0-0.875 0.313-1.578 0.828-2.141-0.078-0.203-0.359-1.016 0.078-2.125 0.672-0.203 2.203 0.828 2.203 0.828 0.641-0.187 1.313-0.266 2-0.266s1.359 0.078 2 0.266c0 0 1.531-1.031 2.203-0.828 0.438 1.109 0.156 1.922 0.078 2.125 0.516 0.562 0.828 1.266 0.828 2.141 0 3.078-1.875 3.75-3.656 3.953 0.281 0.25 0.547 0.734 0.547 1.484 0 1.062-0.016 1.922-0.016 2.188 0 0.219 0.141 0.469 0.547 0.391 3.172-1.062 5.469-4.062 5.469-7.594zM24 6.5v15c0 2.484-2.016 4.5-4.5 4.5h-15c-2.484 0-4.5-2.016-4.5-4.5v-15c0-2.484 2.016-4.5 4.5-4.5h15c2.484 0 4.5 2.016 4.5 4.5z"></path>
</symbol>
<symbol id="icon-twitter" viewBox="0 0 26 28">
<title>twitter</title>
<path class="path1" d="M25.312 6.375c-0.688 1-1.547 1.891-2.531 2.609 0.016 0.219 0.016 0.438 0.016 0.656 0 6.672-5.078 14.359-14.359 14.359-2.859 0-5.516-0.828-7.75-2.266 0.406 0.047 0.797 0.063 1.219 0.063 2.359 0 4.531-0.797 6.266-2.156-2.219-0.047-4.078-1.5-4.719-3.5 0.313 0.047 0.625 0.078 0.953 0.078 0.453 0 0.906-0.063 1.328-0.172-2.312-0.469-4.047-2.5-4.047-4.953v-0.063c0.672 0.375 1.453 0.609 2.281 0.641-1.359-0.906-2.25-2.453-2.25-4.203 0-0.938 0.25-1.797 0.688-2.547 2.484 3.062 6.219 5.063 10.406 5.281-0.078-0.375-0.125-0.766-0.125-1.156 0-2.781 2.25-5.047 5.047-5.047 1.453 0 2.766 0.609 3.687 1.594 1.141-0.219 2.234-0.641 3.203-1.219-0.375 1.172-1.172 2.156-2.219 2.781 1.016-0.109 2-0.391 2.906-0.781z"></path>
</symbol>
<symbol id="icon-github" viewBox="0 0 24 28">
<title>github</title>
<path class="path1" d="M12 2c6.625 0 12 5.375 12 12 0 5.297-3.437 9.797-8.203 11.391-0.609 0.109-0.828-0.266-0.828-0.578 0-0.391 0.016-1.687 0.016-3.297 0-1.125-0.375-1.844-0.812-2.219 2.672-0.297 5.484-1.313 5.484-5.922 0-1.313-0.469-2.375-1.234-3.219 0.125-0.313 0.531-1.531-0.125-3.187-1-0.313-3.297 1.234-3.297 1.234-0.953-0.266-1.984-0.406-3-0.406s-2.047 0.141-3 0.406c0 0-2.297-1.547-3.297-1.234-0.656 1.656-0.25 2.875-0.125 3.187-0.766 0.844-1.234 1.906-1.234 3.219 0 4.594 2.797 5.625 5.469 5.922-0.344 0.313-0.656 0.844-0.766 1.609-0.688 0.313-2.438 0.844-3.484-1-0.656-1.141-1.844-1.234-1.844-1.234-1.172-0.016-0.078 0.734-0.078 0.734 0.781 0.359 1.328 1.75 1.328 1.75 0.703 2.141 4.047 1.422 4.047 1.422 0 1 0.016 1.937 0.016 2.234 0 0.313-0.219 0.688-0.828 0.578-4.766-1.594-8.203-6.094-8.203-11.391 0-6.625 5.375-12 12-12zM4.547 19.234c0.031-0.063-0.016-0.141-0.109-0.187-0.094-0.031-0.172-0.016-0.203 0.031-0.031 0.063 0.016 0.141 0.109 0.187 0.078 0.047 0.172 0.031 0.203-0.031zM5.031 19.766c0.063-0.047 0.047-0.156-0.031-0.25-0.078-0.078-0.187-0.109-0.25-0.047-0.063 0.047-0.047 0.156 0.031 0.25 0.078 0.078 0.187 0.109 0.25 0.047zM5.5 20.469c0.078-0.063 0.078-0.187 0-0.297-0.063-0.109-0.187-0.156-0.266-0.094-0.078 0.047-0.078 0.172 0 0.281s0.203 0.156 0.266 0.109zM6.156 21.125c0.063-0.063 0.031-0.203-0.063-0.297-0.109-0.109-0.25-0.125-0.313-0.047-0.078 0.063-0.047 0.203 0.063 0.297 0.109 0.109 0.25 0.125 0.313 0.047zM7.047 21.516c0.031-0.094-0.063-0.203-0.203-0.25-0.125-0.031-0.266 0.016-0.297 0.109s0.063 0.203 0.203 0.234c0.125 0.047 0.266 0 0.297-0.094zM8.031 21.594c0-0.109-0.125-0.187-0.266-0.172-0.141 0-0.25 0.078-0.25 0.172 0 0.109 0.109 0.187 0.266 0.172 0.141 0 0.25-0.078 0.25-0.172zM8.937 21.438c-0.016-0.094-0.141-0.156-0.281-0.141-0.141 0.031-0.234 0.125-0.219 0.234 0.016 0.094 0.141 0.156 0.281 0.125s0.234-0.125 0.219-0.219z"></path>
</symbol>
<symbol id="icon-hand-o-right" viewBox="0 0 28 28">
<title>hand-o-right</title>
<path class="path1" d="M4 21c0-0.547-0.453-1-1-1s-1 0.453-1 1 0.453 1 1 1 1-0.453 1-1zM26 12c0-1.062-0.953-2-2-2h-9c0-0.984 1.5-2 1.5-4 0-1.5-1.172-2-2.5-2-0.438 0-1.234 1.813-1.406 2.172-0.187 0.344-0.375 0.688-0.578 1.016-0.516 0.828-1.109 1.547-1.75 2.266-1 1.141-2.109 2.547-3.766 2.547h-0.5v10h0.5c2.734 0 5.406 2 8.437 2 1.75 0 2.953-0.734 2.953-2.609 0-0.297-0.031-0.594-0.078-0.875 0.656-0.359 1.016-1.25 1.016-1.969 0-0.375-0.094-0.75-0.281-1.078 0.531-0.5 0.828-1.125 0.828-1.859 0-0.5-0.219-1.234-0.547-1.609h5.172c1.078 0 2-0.922 2-2zM28 11.984c0 2.188-1.813 4.016-4 4.016h-2.641c-0.047 0.656-0.25 1.281-0.578 1.859 0.031 0.219 0.047 0.453 0.047 0.672 0 1-0.328 2-0.938 2.781 0.031 2.953-1.984 4.688-4.875 4.688-1.75 0-3.406-0.484-5.031-1.078-0.953-0.344-2.5-0.922-3.484-0.922h-4.5c-1.109 0-2-0.891-2-2v-10c0-1.109 0.891-2 2-2h4.5c0.75 0 1.813-1.344 2.266-1.859 0.562-0.641 1.094-1.281 1.563-2.016 0.906-1.453 1.578-4.125 3.672-4.125 2.484 0 4.5 1.359 4.5 4 0 0.688-0.109 1.359-0.344 2h5.844c2.156 0 4 1.828 4 3.984z"></path>
</symbol>
<symbol id="icon-linkedin" viewBox="0 0 24 28">
<title>linkedin</title>
<path class="path1" d="M5.453 9.766v15.484h-5.156v-15.484h5.156zM5.781 4.984c0.016 1.484-1.109 2.672-2.906 2.672v0h-0.031c-1.734 0-2.844-1.188-2.844-2.672 0-1.516 1.156-2.672 2.906-2.672 1.766 0 2.859 1.156 2.875 2.672zM24 16.375v8.875h-5.141v-8.281c0-2.078-0.75-3.5-2.609-3.5-1.422 0-2.266 0.953-2.641 1.875-0.125 0.344-0.172 0.797-0.172 1.266v8.641h-5.141c0.063-14.031 0-15.484 0-15.484h5.141v2.25h-0.031c0.672-1.062 1.891-2.609 4.672-2.609 3.391 0 5.922 2.219 5.922 6.969z"></path>
</symbol>
<symbol id="icon-exclamation" viewBox="0 0 10 28">
<title>exclamation</title>
<path class="path1" d="M8 19.5v3.5c0 0.547-0.453 1-1 1h-4c-0.547 0-1-0.453-1-1v-3.5c0-0.547 0.453-1 1-1h4c0.547 0 1 0.453 1 1zM8.469 3l-0.438 12c-0.016 0.547-0.484 1-1.031 1h-4c-0.547 0-1.016-0.453-1.031-1l-0.438-12c-0.016-0.547 0.422-1 0.969-1h5c0.547 0 0.984 0.453 0.969 1z"></path>
</symbol>
<symbol id="icon-github2" viewBox="0 0 32 32">
<title>github2</title>
<path class="path1" d="M16 0.395c-8.836 0-16 7.163-16 16 0 7.069 4.585 13.067 10.942 15.182 0.8 0.148 1.094-0.347 1.094-0.77 0-0.381-0.015-1.642-0.022-2.979-4.452 0.968-5.391-1.888-5.391-1.888-0.728-1.849-1.776-2.341-1.776-2.341-1.452-0.993 0.11-0.973 0.11-0.973 1.606 0.113 2.452 1.649 2.452 1.649 1.427 2.446 3.743 1.739 4.656 1.33 0.143-1.034 0.558-1.74 1.016-2.14-3.554-0.404-7.29-1.777-7.29-7.907 0-1.747 0.625-3.174 1.649-4.295-0.166-0.403-0.714-2.030 0.155-4.234 0 0 1.344-0.43 4.401 1.64 1.276-0.355 2.645-0.532 4.005-0.539 1.359 0.006 2.729 0.184 4.008 0.539 3.054-2.070 4.395-1.64 4.395-1.64 0.871 2.204 0.323 3.831 0.157 4.234 1.026 1.12 1.647 2.548 1.647 4.295 0 6.145-3.743 7.498-7.306 7.895 0.574 0.497 1.085 1.47 1.085 2.963 0 2.141-0.019 3.864-0.019 4.391 0 0.426 0.288 0.925 1.099 0.768 6.354-2.118 10.933-8.113 10.933-15.18 0-8.837-7.164-16-16-16z"></path>
</symbol>
<symbol id="icon-mail" viewBox="0 0 24 24">
<title>mail</title>
<path class="path1" d="M19 7h-14c-1.104 0-2 0.896-2 2v9c0 1.104 0.896 2 2 2h14c1.104 0 2-0.896 2-2v-9c0-1.104-0.896-2-2-2zM9.316 14.316l1.602 1.4c0.305 0.266 0.691 0.398 1.082 0.398s0.777-0.133 1.082-0.398l1.602-1.4-0.037 0.037 3.646 3.646h-12.586l3.646-3.646-0.037-0.037zM5 17.293v-6.753l3.602 3.151-3.602 3.602zM15.398 13.691l3.602-3.151v6.75l-3.602-3.599zM19 9v0.21l-6.576 5.754c-0.227 0.198-0.621 0.198-0.848 0l-6.576-5.754v-0.21h14z"></path>
</symbol>
<symbol viewBox="0 0 300 160" id="icon-logo">
    <title>
        Glade Kettle Freelance Front End Developer Melbourne
    </title>
    <g fill="none" fill-rule="evenodd">
        <path d="M32.387 159.865c-6.126-13.502-12.252-27.094-18.468-40.776 74.775-33.756 149.19-67.33 224.685-101.356 6.126 13.592 12.252 27.184 18.468 40.776-74.955 33.845-149.82 67.6-224.685 101.356z" fill="#507282"/>
        <path d="M.405 78.762A7871.17 7871.17 0 0 0 14.46 36.276c61.802 20.433 123.334 40.866 185.676 61.48-4.685 14.131-9.37 28.354-14.054 42.486C124.19 119.719 62.297 99.286.405 78.762z" fill="#71535C"/>
        <path d="M283.829 28.444c5.135 13.863 10.36 27.815 15.585 41.947-64.054 23.674-127.928 47.347-192.522 71.201-5.225-13.952-10.36-27.994-15.586-41.946A166359.074 166359.074 0 0 1 283.83 28.444z" fill="#B25538"/>
        <path d="M61.757 80.563c3.513-10.802 7.027-21.604 10.63-32.585 71.532 23.313 142.793 46.447 215.045 69.94-3.513 10.892-7.027 21.694-10.54 32.586L61.757 80.563z" fill="#507282"/>
        <path d="M232.658 105.316c2.973-2.43 2.432-4.05-.811-6.21-2.072-1.44-4.324-3.151-4.234-6.662.27-10.171.36-20.433 0-30.604-.09-4.321-.991-8.912-2.343-13.052-.72-2.07-3.513-5.041-5.045-4.861-5.225.45-7.387-3.24-10.09-5.941 1.442-2.07 2.793-4.14 4.595-6.751-2.613-.36-3.964-.27-4.955-.81-7.117-3.78-14.685-6.301-20.811-12.602-6.126-6.121-14.685-9.992-22.613-14.042C153.74-2.61 141.216.63 129.414 6.57c-4.144 2.16-7.297 6.121-11.26 8.821-4.145 2.88-8.74 5.221-13.244 7.652-.63.36-1.622.54-2.433.36-7.117-1.62-13.063.72-17.207 6.48-4.594 6.482-8.829 13.323-12.883 20.164-1.441 2.34-2.522 5.31-2.612 8.011 0 10.712.36 21.423.54 32.225.09 1.89.09 3.69.09 5.581-.63.09-1.26.27-1.891.36-.541-1.62-1.532-3.33-1.622-4.95-.09-10.622 0-21.244 0-31.416-3.243-.72-6.126-1.35-9.37-1.98.451 1.98.27 4.14 1.352 5.31 4.955 5.672 3.153 12.333 3.333 18.724.09 3.24 0 6.93 1.442 9.631 3.513 6.121 5.045 11.792-.54 17.373 3.783 3.42 7.567 2.34 11.53.36 2.523 4.05 5.766 6.841 10.902 7.021v-4.23c7.297 1.35 13.963 5.31 21.891 3.24a275.45 275.45 0 0 0-4.414-3.87c7.027.99 13.784 2.16 20.72 2.97 2.523.36 5.406.18 4.595-3.78 6.757 2.61 13.334 3.96 20.45 2.25 1.622-.45 5.136 0 5.136.27.27 3.33 2.613 1.98 4.054 1.71 5.405-1.26 10.81-2.7 16.396-4.14-.63 1.35-1.26 2.61-2.432 4.95 5.766-.9 10.54-1.8 15.225-2.16 2.433-.27 5.676-4.501 7.388.99.09.18.9.27 1.35.09 4.595-1.44 9.19-2.97 13.785-4.5 1.17-.36 2.432-.63 3.693-.99.18 1.08.45 2.16.631 3.33.09.63.09 1.35.09 1.8 3.333 2.07 6.036-5.221 9.46.9 1.08-2.43 1.801-4.05 2.522-5.76.18 2.7-.27 5.94 4.144 5.67.36-1.62.991-3.06.811-4.41-.27-1.17-1.441-2.161-2.162-3.241 1.261-.72 2.612-1.26 3.784-2.07zM231.486 59.23v20.793c1.982-.99 3.514-1.71 5.316-2.61-.09-6.482 1.08-13.233-5.316-18.184z" fill="#FFF"/>
        <path d="M235.27 89.744l-1.621-.54c-3.244 1.35-3.334 3.6-.09 6.661.54-1.98 1.08-4.05 1.711-6.121z" fill="#FFF"/>
        <path d="M226.081 109.277c.901-.63 1.802-1.26 2.793-1.98.72 1.08 1.892 2.07 2.162 3.24.18 1.35-.45 2.88-.81 4.501-4.415.27-3.965-2.97-4.145-5.76z" fill="#000"/>
        <path d="M166.712 49.778c-3.694-2.25-7.117-4.23-11.352-6.751 3.424 8.911 3.784 9.181 11.352 6.75zm4.144-10.622c0 10.172 4.414 11.882 14.324 9.722-5.045-3.42-9.46-6.391-14.324-9.722zM115.99 50.048c1.802.09 2.973.18 4.144.18 8.018-.27 15.676.09 23.153 3.69 4.685 2.25 10.18 1.71 16.307-1.71-4.505-1.26-7.928-1.71-10.991-3.06-7.568-3.42-14.235-7.922-17.388-16.203-.27-.72-3.063-1.53-3.423-1.17-2.703 2.79-5.316 5.76-7.478 9.001-1.711 2.7-2.792 5.851-4.324 9.272zm76.667 6.66c-3.244-1.17-5.856-2.97-8.469-2.97-5.946 0-11.892.63-17.838 1.26-4.774.54-7.027 3.601-6.306 8.282.45 3.06 1.802 5.94 2.703 8.911 2.522 8.462 11.261 12.602 18.468 13.232 5.766.45 12.343-.99 15.135-6.12 3.694-6.572 3.964-14.403 1.262-21.694-1.262-3.42-3.334-3.33-4.955-.9zm-76.126 30.336c5.495-2.61 11.08-4.051 15.045-7.472 4.684-4.14 6.396-10.621 7.117-17.012.36-3.96-2.162-6.661-5.766-7.471-4.234-.81-8.649-1.17-12.973-1.17-5.045 0-10.18.27-15.135 1.26-1.802.36-4.234 2.97-4.325 4.77-.45 5.401 0 10.892.45 16.293.091 1.53.632 3.78 1.623 4.41 4.414 2.341 9.009 4.141 13.964 6.392zm52.432 5.94c-.36-1.98-.72-3.78-1.171-5.58-.45-1.71-.36-4.051-1.532-4.861-6.216-4.68-8.198-11.612-11.261-18.093-.9-1.89-3.964-3.42-6.216-3.78-1.442-.18-3.784 1.98-4.775 3.51-3.694 6.301-5.045 13.952-11.441 18.723-1.352.9-1.352 3.42-1.892 5.31-.54 1.531-.991 3.061-1.532 5.132-1.441-2.43-2.252-3.871-3.063-5.221-.81.54-2.072.9-2.342 1.62-1.171 3.24-1.171 6.751 1.711 9.091 2.253 1.8 5.045 1.26 7.118-1.08 1.17-1.26 2.342-2.61 3.243-4.05 2.432-4.231 4.594-8.642 7.117-12.692.63-.9 2.613-.99 3.964-1.35.27 1.71 1.531 3.96.81 5.13-2.612 4.951-5.675 9.812-8.918 14.403-2.613 3.69-8.559 5.85-11.802 4.41-4.955-2.07-8.018-5.49-7.297-10.892.18-1.35-.09-2.79-.09-3.15-6.127-1.8-12.253-1.98-16.397-5.04-4.054-2.971-5.946-8.732-8.739-13.053-.18 2.88-.45 6.391-.72 10.262-.991-1.35-1.892-2.43-2.793-3.51-.45.09-.81.09-1.261.18v26.733h119.82c-3.874-13.322 2.252-27.454-4.595-39.606-2.703 6.121-3.784 13.502-8.198 17.553-4.325 3.96-11.802 4.41-18.379 6.571 0 1.17-.18 3.06 0 5.04.54 4.321-2.342 6.572-5.405 8.462-3.153 1.98-6.126.63-9.28-.99-7.387-3.96-9.098-11.882-13.333-18.003-.63-.9.811-3.24 1.262-4.86 1.35.54 3.423.63 3.964 1.62 2.792 4.5 5.225 9.271 7.747 13.952 1.712 2.88 3.874 5.31 7.658 4.77 3.964-.45 4.324-3.87 4.414-6.75 0-1.62-1.621-3.241-2.522-4.861-.991 1.26-1.982 2.61-3.874 4.95zm57.117 16.383c-.72 1.71-1.441 3.33-2.522 5.761-3.424-6.121-6.127 1.17-9.46-.9 0-.45 0-1.17-.09-1.8-.18-1.17-.45-2.25-.63-3.33-1.262.36-2.523.63-3.694.99-4.595 1.53-9.19 3.06-13.784 4.5-.45.18-1.261.09-1.351-.09-1.712-5.491-4.955-1.26-7.388-.99-4.685.36-9.46 1.26-15.225 2.16 1.171-2.34 1.802-3.6 2.432-4.95-5.585 1.44-10.99 2.88-16.396 4.14-1.441.27-3.784 1.62-4.054-1.71 0-.27-3.514-.72-5.135-.27-7.117 1.71-13.694.36-20.45-2.25.81 3.96-2.073 4.14-4.595 3.78-6.937-.81-13.694-1.98-20.721-2.97a275.45 275.45 0 0 1 4.414 3.87c-7.928 2.07-14.594-1.89-21.891-3.24v4.23c-5.136-.18-8.379-2.97-10.901-7.02-3.964 1.98-7.748 3.06-11.532-.361 5.586-5.58 4.054-11.252.54-17.373-1.44-2.7-1.35-6.39-1.44-9.631-.181-6.391 1.62-13.052-3.334-18.723-1.081-1.17-.901-3.33-1.351-5.31 3.243.63 6.126 1.26 9.369 1.98 0 10.171-.09 20.793 0 31.414.09 1.62 1.081 3.33 1.622 4.951.63-.09 1.26-.27 1.891-.36 0-1.89 0-3.69-.09-5.58-.18-10.803-.54-21.514-.54-32.226.09-2.7 1.17-5.67 2.612-8.011 4.054-6.841 8.289-13.682 12.883-20.163 4.144-5.761 10.09-8.102 17.207-6.481.811.18 1.802 0 2.433-.36 4.504-2.43 9.099-4.771 13.243-7.652 3.964-2.7 7.117-6.66 11.261-8.821 11.802-5.94 24.325-9.181 36.937-2.79 7.928 4.05 16.487 7.92 22.613 14.042 6.126 6.3 13.694 8.821 20.81 12.602.992.54 2.343.45 4.956.81-1.802 2.61-3.153 4.68-4.595 6.841 2.703 2.61 4.865 6.3 10.09 5.85 1.532-.18 4.325 2.791 5.045 4.862 1.352 4.14 2.253 8.731 2.343 13.052.36 10.171.27 20.433 0 30.604-.09 3.511 2.162 5.221 4.234 6.661 3.243 2.16 3.784 3.781.81 6.211-1.17.81-2.522 1.35-3.783 2.07-.901.63-1.892 1.261-2.793 1.981z" fill="#000"/>
    </g>
</symbol>
</svg>
